<mxfile host="Electron" agent="Mozilla/5.0 (X11; Linux x86_64) AppleWebKit/537.36 (KHTML, like Gecko) draw.io/26.1.1 Chrome/134.0.6998.205 Electron/35.7.5 Safari/537.36" version="26.1.1" pages="4">
  <diagram id="665ne9bv-rL9YxTYtdsN" name="one-step">
    <mxGraphModel dx="1434" dy="859" grid="1" gridSize="10" guides="1" tooltips="1" connect="1" arrows="1" fold="1" page="1" pageScale="1" pageWidth="850" pageHeight="1100" math="0" shadow="0">
      <root>
        <mxCell id="0" />
        <mxCell id="1" parent="0" />
        <mxCell id="TC731A_5rDAlHwFj6exp-1" style="edgeStyle=orthogonalEdgeStyle;rounded=0;orthogonalLoop=1;jettySize=auto;html=1;" edge="1" parent="1" source="TC731A_5rDAlHwFj6exp-4" target="6AHw9Kmx5Sl9z9LNkTmF-2">
          <mxGeometry relative="1" as="geometry">
            <mxPoint x="310" y="360" as="targetPoint" />
          </mxGeometry>
        </mxCell>
        <mxCell id="TC731A_5rDAlHwFj6exp-3" value="" style="rounded=0;orthogonalLoop=1;jettySize=auto;html=1;" edge="1" parent="1" target="TC731A_5rDAlHwFj6exp-4">
          <mxGeometry relative="1" as="geometry">
            <mxPoint x="100" y="360" as="sourcePoint" />
            <mxPoint x="295" y="360" as="targetPoint" />
          </mxGeometry>
        </mxCell>
        <mxCell id="6AHw9Kmx5Sl9z9LNkTmF-1" value="teacher&#39;s words" style="edgeLabel;html=1;align=center;verticalAlign=middle;resizable=0;points=[];" vertex="1" connectable="0" parent="TC731A_5rDAlHwFj6exp-3">
          <mxGeometry x="0.3077" y="-2" relative="1" as="geometry">
            <mxPoint x="-15" y="8" as="offset" />
          </mxGeometry>
        </mxCell>
        <mxCell id="TC731A_5rDAlHwFj6exp-4" value="&lt;div&gt;Capture&lt;/div&gt;" style="shape=process;whiteSpace=wrap;html=1;backgroundOutline=1;" vertex="1" parent="1">
          <mxGeometry x="200" y="340" width="80" height="40" as="geometry" />
        </mxCell>
        <mxCell id="6AHw9Kmx5Sl9z9LNkTmF-2" value="Course notes" style="shape=document;whiteSpace=wrap;html=1;boundedLbl=1;" vertex="1" parent="1">
          <mxGeometry x="320" y="330" width="90" height="60" as="geometry" />
        </mxCell>
      </root>
    </mxGraphModel>
  </diagram>
  <diagram name="multi" id="OBoN3rXq3eL3gwY1E7sd">
    <mxGraphModel dx="954" dy="679" grid="1" gridSize="10" guides="1" tooltips="1" connect="1" arrows="1" fold="1" page="1" pageScale="1" pageWidth="850" pageHeight="1100" math="0" shadow="0">
      <root>
        <mxCell id="0" />
        <mxCell id="1" parent="0" />
        <mxCell id="B4wtdblHKodtiE7WZlVC-14" style="edgeStyle=orthogonalEdgeStyle;rounded=0;orthogonalLoop=1;jettySize=auto;html=1;" parent="1" source="tkzyvDQ8GMRvxvukXC3r-1" target="qvRRH6UYIIMltlXTn2U1-6" edge="1">
          <mxGeometry relative="1" as="geometry">
            <mxPoint x="310" y="360" as="targetPoint" />
          </mxGeometry>
        </mxCell>
        <mxCell id="B4wtdblHKodtiE7WZlVC-19" style="rounded=0;orthogonalLoop=1;jettySize=auto;html=1;" parent="1" source="B4wtdblHKodtiE7WZlVC-17" target="qvRRH6UYIIMltlXTn2U1-4" edge="1">
          <mxGeometry relative="1" as="geometry">
            <mxPoint x="710" y="360" as="targetPoint" />
          </mxGeometry>
        </mxCell>
        <mxCell id="B4wtdblHKodtiE7WZlVC-17" value="&lt;div&gt;Make project note&lt;/div&gt;" style="shape=process;whiteSpace=wrap;html=1;backgroundOutline=1;" parent="1" vertex="1">
          <mxGeometry x="540" y="340" width="120" height="40" as="geometry" />
        </mxCell>
        <mxCell id="B4wtdblHKodtiE7WZlVC-23" style="edgeStyle=orthogonalEdgeStyle;rounded=0;orthogonalLoop=1;jettySize=auto;html=1;" parent="1" source="B4wtdblHKodtiE7WZlVC-20" target="qvRRH6UYIIMltlXTn2U1-5" edge="1">
          <mxGeometry relative="1" as="geometry">
            <mxPoint x="710" y="500" as="targetPoint" />
          </mxGeometry>
        </mxCell>
        <mxCell id="B4wtdblHKodtiE7WZlVC-20" value="Make reference note" style="shape=process;whiteSpace=wrap;html=1;backgroundOutline=1;" parent="1" vertex="1">
          <mxGeometry x="540" y="480" width="120" height="40" as="geometry" />
        </mxCell>
        <mxCell id="B4wtdblHKodtiE7WZlVC-26" style="edgeStyle=orthogonalEdgeStyle;rounded=0;orthogonalLoop=1;jettySize=auto;html=1;" parent="1" source="qvRRH6UYIIMltlXTn2U1-6" target="B4wtdblHKodtiE7WZlVC-28" edge="1">
          <mxGeometry relative="1" as="geometry">
            <mxPoint x="250" y="360" as="targetPoint" />
            <mxPoint x="370" y="360" as="sourcePoint" />
          </mxGeometry>
        </mxCell>
        <mxCell id="B4wtdblHKodtiE7WZlVC-29" style="edgeStyle=orthogonalEdgeStyle;rounded=0;orthogonalLoop=1;jettySize=auto;html=1;" parent="1" source="B4wtdblHKodtiE7WZlVC-28" target="B4wtdblHKodtiE7WZlVC-17" edge="1">
          <mxGeometry relative="1" as="geometry" />
        </mxCell>
        <mxCell id="B4wtdblHKodtiE7WZlVC-32" value="yes" style="edgeLabel;html=1;align=center;verticalAlign=middle;resizable=0;points=[];" parent="B4wtdblHKodtiE7WZlVC-29" connectable="0" vertex="1">
          <mxGeometry x="-0.2429" relative="1" as="geometry">
            <mxPoint y="10" as="offset" />
          </mxGeometry>
        </mxCell>
        <mxCell id="B4wtdblHKodtiE7WZlVC-31" style="edgeStyle=orthogonalEdgeStyle;rounded=0;orthogonalLoop=1;jettySize=auto;html=1;" parent="1" source="B4wtdblHKodtiE7WZlVC-28" target="B4wtdblHKodtiE7WZlVC-30" edge="1">
          <mxGeometry relative="1" as="geometry" />
        </mxCell>
        <mxCell id="B4wtdblHKodtiE7WZlVC-33" value="no" style="edgeLabel;html=1;align=center;verticalAlign=middle;resizable=0;points=[];" parent="B4wtdblHKodtiE7WZlVC-31" connectable="0" vertex="1">
          <mxGeometry x="-0.3357" y="2" relative="1" as="geometry">
            <mxPoint x="8" y="-3" as="offset" />
          </mxGeometry>
        </mxCell>
        <mxCell id="B4wtdblHKodtiE7WZlVC-28" value="&lt;div&gt;Project&amp;nbsp;&lt;/div&gt;&lt;div&gt;specific?&lt;/div&gt;" style="rhombus;whiteSpace=wrap;html=1;" parent="1" vertex="1">
          <mxGeometry x="400" y="310" width="100" height="100" as="geometry" />
        </mxCell>
        <mxCell id="B4wtdblHKodtiE7WZlVC-34" style="edgeStyle=orthogonalEdgeStyle;rounded=0;orthogonalLoop=1;jettySize=auto;html=1;" parent="1" source="B4wtdblHKodtiE7WZlVC-30" target="B4wtdblHKodtiE7WZlVC-20" edge="1">
          <mxGeometry relative="1" as="geometry" />
        </mxCell>
        <mxCell id="B4wtdblHKodtiE7WZlVC-35" value="yes" style="edgeLabel;html=1;align=center;verticalAlign=middle;resizable=0;points=[];" parent="B4wtdblHKodtiE7WZlVC-34" connectable="0" vertex="1">
          <mxGeometry x="-0.1286" y="2" relative="1" as="geometry">
            <mxPoint x="-2" y="12" as="offset" />
          </mxGeometry>
        </mxCell>
        <mxCell id="B4wtdblHKodtiE7WZlVC-39" style="edgeStyle=orthogonalEdgeStyle;rounded=1;orthogonalLoop=1;jettySize=auto;html=1;curved=0;exitX=0.5;exitY=1;exitDx=0;exitDy=0;entryX=0.5;entryY=0;entryDx=0;entryDy=0;" parent="1" source="B4wtdblHKodtiE7WZlVC-30" target="B4wtdblHKodtiE7WZlVC-46" edge="1">
          <mxGeometry relative="1" as="geometry">
            <mxPoint x="440" y="554.99" as="sourcePoint" />
            <mxPoint x="355" y="600.0285714285715" as="targetPoint" />
          </mxGeometry>
        </mxCell>
        <mxCell id="B4wtdblHKodtiE7WZlVC-40" value="no" style="edgeLabel;html=1;align=center;verticalAlign=middle;resizable=0;points=[];" parent="B4wtdblHKodtiE7WZlVC-39" connectable="0" vertex="1">
          <mxGeometry x="-0.2901" relative="1" as="geometry">
            <mxPoint x="10" y="2" as="offset" />
          </mxGeometry>
        </mxCell>
        <mxCell id="B4wtdblHKodtiE7WZlVC-30" value="Permanent?" style="rhombus;whiteSpace=wrap;html=1;" parent="1" vertex="1">
          <mxGeometry x="400" y="450" width="100" height="100" as="geometry" />
        </mxCell>
        <mxCell id="B4wtdblHKodtiE7WZlVC-46" value="Idea remains as fleeting note" style="ellipse;whiteSpace=wrap;html=1;" parent="1" vertex="1">
          <mxGeometry x="400" y="590" width="100" height="66.67" as="geometry" />
        </mxCell>
        <mxCell id="B4wtdblHKodtiE7WZlVC-47" value="Idea" style="ellipse;shape=cloud;whiteSpace=wrap;html=1;" parent="1" vertex="1">
          <mxGeometry x="80" y="330" width="90" height="60" as="geometry" />
        </mxCell>
        <mxCell id="tkzyvDQ8GMRvxvukXC3r-2" value="" style="edgeStyle=orthogonalEdgeStyle;rounded=0;orthogonalLoop=1;jettySize=auto;html=1;" edge="1" parent="1" source="B4wtdblHKodtiE7WZlVC-47" target="tkzyvDQ8GMRvxvukXC3r-1">
          <mxGeometry relative="1" as="geometry">
            <mxPoint x="230" y="360" as="sourcePoint" />
            <mxPoint x="295" y="360" as="targetPoint" />
          </mxGeometry>
        </mxCell>
        <mxCell id="tkzyvDQ8GMRvxvukXC3r-1" value="&lt;div&gt;Capture&lt;/div&gt;" style="shape=process;whiteSpace=wrap;html=1;backgroundOutline=1;" vertex="1" parent="1">
          <mxGeometry x="200" y="340" width="80" height="40" as="geometry" />
        </mxCell>
        <mxCell id="qvRRH6UYIIMltlXTn2U1-4" value="Project note" style="shape=note;whiteSpace=wrap;html=1;backgroundOutline=1;darkOpacity=0.05;" vertex="1" parent="1">
          <mxGeometry x="698" y="315" width="72" height="90" as="geometry" />
        </mxCell>
        <mxCell id="qvRRH6UYIIMltlXTn2U1-5" value="Reference note" style="shape=note;whiteSpace=wrap;html=1;backgroundOutline=1;darkOpacity=0.05;" vertex="1" parent="1">
          <mxGeometry x="698" y="454.99999999999994" width="72" height="90" as="geometry" />
        </mxCell>
        <mxCell id="qvRRH6UYIIMltlXTn2U1-6" value="Fleeting note" style="shape=note;whiteSpace=wrap;html=1;backgroundOutline=1;darkOpacity=0.05;" vertex="1" parent="1">
          <mxGeometry x="300" y="315" width="72" height="90" as="geometry" />
        </mxCell>
      </root>
    </mxGraphModel>
  </diagram>
  <diagram id="wsZXYnZL1ntx_QZsEE-C" name="multi2">
    <mxGraphModel dx="1434" dy="859" grid="1" gridSize="10" guides="1" tooltips="1" connect="1" arrows="1" fold="1" page="1" pageScale="1" pageWidth="850" pageHeight="1100" math="0" shadow="0">
      <root>
        <mxCell id="0" />
        <mxCell id="1" parent="0" />
        <mxCell id="qyZi219hdolzGRmsANto-37" style="edgeStyle=orthogonalEdgeStyle;rounded=0;orthogonalLoop=1;jettySize=auto;html=1;" edge="1" parent="1" source="qyZi219hdolzGRmsANto-32" target="qyZi219hdolzGRmsANto-40">
          <mxGeometry relative="1" as="geometry">
            <mxPoint x="320" y="580" as="targetPoint" />
          </mxGeometry>
        </mxCell>
        <mxCell id="qyZi219hdolzGRmsANto-32" value="Capture" style="shape=process;whiteSpace=wrap;html=1;backgroundOutline=1;" vertex="1" parent="1">
          <mxGeometry x="200" y="550" width="120" height="60" as="geometry" />
        </mxCell>
        <mxCell id="qyZi219hdolzGRmsANto-33" style="rounded=0;orthogonalLoop=1;jettySize=auto;html=1;entryX=0;entryY=0.5;entryDx=0;entryDy=0;" edge="1" parent="1" target="qyZi219hdolzGRmsANto-32">
          <mxGeometry relative="1" as="geometry">
            <mxPoint x="185" y="450" as="targetPoint" />
            <mxPoint x="85" y="580" as="sourcePoint" />
          </mxGeometry>
        </mxCell>
        <mxCell id="qyZi219hdolzGRmsANto-34" value="Words, ideas" style="edgeLabel;html=1;align=center;verticalAlign=middle;resizable=0;points=[];" vertex="1" connectable="0" parent="qyZi219hdolzGRmsANto-33">
          <mxGeometry x="-0.0996" y="-3" relative="1" as="geometry">
            <mxPoint x="3" y="7" as="offset" />
          </mxGeometry>
        </mxCell>
        <mxCell id="qyZi219hdolzGRmsANto-45" style="edgeStyle=orthogonalEdgeStyle;rounded=0;orthogonalLoop=1;jettySize=auto;html=1;" edge="1" parent="1" source="qyZi219hdolzGRmsANto-35" target="qyZi219hdolzGRmsANto-44">
          <mxGeometry relative="1" as="geometry" />
        </mxCell>
        <mxCell id="qyZi219hdolzGRmsANto-35" value="Who? What? When? Where? Why?" style="shape=process;whiteSpace=wrap;html=1;backgroundOutline=1;" vertex="1" parent="1">
          <mxGeometry x="500" y="480" width="120" height="60" as="geometry" />
        </mxCell>
        <mxCell id="qyZi219hdolzGRmsANto-41" style="rounded=0;orthogonalLoop=1;jettySize=auto;html=1;exitX=1;exitY=0.25;exitDx=0;exitDy=0;entryX=0;entryY=0.5;entryDx=0;entryDy=0;edgeStyle=orthogonalEdgeStyle;curved=1;" edge="1" parent="1" source="qyZi219hdolzGRmsANto-40" target="qyZi219hdolzGRmsANto-35">
          <mxGeometry relative="1" as="geometry" />
        </mxCell>
        <mxCell id="qyZi219hdolzGRmsANto-48" style="rounded=0;orthogonalLoop=1;jettySize=auto;html=1;entryX=0;entryY=0.5;entryDx=0;entryDy=0;exitX=1;exitY=0.5;exitDx=0;exitDy=0;edgeStyle=orthogonalEdgeStyle;curved=1;" edge="1" parent="1" source="qyZi219hdolzGRmsANto-40" target="qyZi219hdolzGRmsANto-47">
          <mxGeometry relative="1" as="geometry" />
        </mxCell>
        <mxCell id="qyZi219hdolzGRmsANto-40" value="Fleeting note" style="shape=document;whiteSpace=wrap;html=1;boundedLbl=1;aspect=fixed;" vertex="1" parent="1">
          <mxGeometry x="360" y="550" width="90" height="60" as="geometry" />
        </mxCell>
        <mxCell id="qyZi219hdolzGRmsANto-44" value="Project note" style="shape=document;whiteSpace=wrap;html=1;boundedLbl=1;aspect=fixed;" vertex="1" parent="1">
          <mxGeometry x="670" y="480" width="90" height="60" as="geometry" />
        </mxCell>
        <mxCell id="qyZi219hdolzGRmsANto-46" value="Permanent&lt;div&gt;note&lt;/div&gt;" style="shape=document;whiteSpace=wrap;html=1;boundedLbl=1;aspect=fixed;" vertex="1" parent="1">
          <mxGeometry x="670.5" y="600" width="89" height="59.33" as="geometry" />
        </mxCell>
        <mxCell id="qyZi219hdolzGRmsANto-49" style="edgeStyle=orthogonalEdgeStyle;rounded=0;orthogonalLoop=1;jettySize=auto;html=1;" edge="1" parent="1" source="qyZi219hdolzGRmsANto-47" target="qyZi219hdolzGRmsANto-46">
          <mxGeometry relative="1" as="geometry" />
        </mxCell>
        <mxCell id="qyZi219hdolzGRmsANto-47" value="&amp;nbsp;Rephrase" style="shape=process;whiteSpace=wrap;html=1;backgroundOutline=1;" vertex="1" parent="1">
          <mxGeometry x="500" y="600" width="120" height="60" as="geometry" />
        </mxCell>
      </root>
    </mxGraphModel>
  </diagram>
  <diagram id="_3hyx0869j0E9oMY82Re" name="Legend">
    <mxGraphModel dx="1434" dy="859" grid="1" gridSize="10" guides="1" tooltips="1" connect="1" arrows="1" fold="1" page="1" pageScale="1" pageWidth="850" pageHeight="1100" math="0" shadow="0">
      <root>
        <mxCell id="0" />
        <mxCell id="1" parent="0" />
        <mxCell id="GE6PzlOKSOdibtx9XGdI-1" value="Activity" style="shape=process;whiteSpace=wrap;html=1;backgroundOutline=1;" parent="1" vertex="1">
          <mxGeometry x="130" y="320" width="120" height="60" as="geometry" />
        </mxCell>
        <mxCell id="GE6PzlOKSOdibtx9XGdI-3" value="Decision" style="rhombus;whiteSpace=wrap;html=1;" parent="1" vertex="1">
          <mxGeometry x="440" y="310" width="80" height="80" as="geometry" />
        </mxCell>
        <mxCell id="RAi8ZRcej44Egq6L3wcN-1" value="Store" style="shape=cylinder3;whiteSpace=wrap;html=1;boundedLbl=1;backgroundOutline=1;size=15;" parent="1" vertex="1">
          <mxGeometry x="320" y="310" width="60" height="80" as="geometry" />
        </mxCell>
      </root>
    </mxGraphModel>
  </diagram>
</mxfile>
